<mxfile host="app.diagrams.net" modified="2024-05-10T14:13:38.347Z" agent="Mozilla/5.0 (Windows NT 10.0; Win64; x64) AppleWebKit/537.36 (KHTML, like Gecko) Chrome/124.0.0.0 Safari/537.36" etag="6mm42TJuTn-_OQXfXF_I" version="23.1.6" type="github">
  <diagram name="Page-1" id="c7488fd3-1785-93aa-aadb-54a6760d102a">
    <mxGraphModel dx="2293" dy="1113" grid="1" gridSize="10" guides="1" tooltips="1" connect="1" arrows="1" fold="1" page="1" pageScale="1" pageWidth="1100" pageHeight="850" background="none" math="0" shadow="0">
      <root>
        <mxCell id="0" />
        <mxCell id="1" parent="0" />
        <mxCell id="HrjmXTN8IJn1UTuncU6w-47" value="diagram aktifitas pemesananÂ " style="shape=table;startSize=30;container=1;collapsible=0;childLayout=tableLayout;fixedRows=1;rowLines=0;fontStyle=0;strokeColor=default;fontSize=16;" vertex="1" parent="1">
          <mxGeometry x="480" y="270" width="820" height="1000" as="geometry" />
        </mxCell>
        <mxCell id="HrjmXTN8IJn1UTuncU6w-48" value="" style="shape=tableRow;horizontal=0;startSize=0;swimlaneHead=0;swimlaneBody=0;top=0;left=0;bottom=0;right=0;collapsible=0;dropTarget=0;fillColor=none;points=[[0,0.5],[1,0.5]];portConstraint=eastwest;strokeColor=inherit;fontSize=16;" vertex="1" parent="HrjmXTN8IJn1UTuncU6w-47">
          <mxGeometry y="30" width="820" height="30" as="geometry" />
        </mxCell>
        <mxCell id="HrjmXTN8IJn1UTuncU6w-49" value="" style="shape=partialRectangle;html=1;whiteSpace=wrap;connectable=0;fillColor=none;top=0;left=0;bottom=0;right=0;overflow=hidden;pointerEvents=1;strokeColor=inherit;fontSize=16;" vertex="1" parent="HrjmXTN8IJn1UTuncU6w-48">
          <mxGeometry width="40" height="30" as="geometry">
            <mxRectangle width="40" height="30" as="alternateBounds" />
          </mxGeometry>
        </mxCell>
        <mxCell id="HrjmXTN8IJn1UTuncU6w-50" value="" style="shape=partialRectangle;html=1;whiteSpace=wrap;connectable=0;fillColor=none;top=0;left=0;bottom=0;right=0;align=left;spacingLeft=6;overflow=hidden;strokeColor=inherit;fontSize=16;" vertex="1" parent="HrjmXTN8IJn1UTuncU6w-48">
          <mxGeometry x="40" width="780" height="30" as="geometry">
            <mxRectangle width="780" height="30" as="alternateBounds" />
          </mxGeometry>
        </mxCell>
        <mxCell id="HrjmXTN8IJn1UTuncU6w-51" value="" style="shape=tableRow;horizontal=0;startSize=0;swimlaneHead=0;swimlaneBody=0;top=0;left=0;bottom=0;right=0;collapsible=0;dropTarget=0;fillColor=none;points=[[0,0.5],[1,0.5]];portConstraint=eastwest;strokeColor=inherit;fontSize=16;" vertex="1" parent="HrjmXTN8IJn1UTuncU6w-47">
          <mxGeometry y="60" width="820" height="30" as="geometry" />
        </mxCell>
        <mxCell id="HrjmXTN8IJn1UTuncU6w-52" value="" style="shape=partialRectangle;html=1;whiteSpace=wrap;connectable=0;fillColor=none;top=0;left=0;bottom=0;right=0;overflow=hidden;strokeColor=inherit;fontSize=16;" vertex="1" parent="HrjmXTN8IJn1UTuncU6w-51">
          <mxGeometry width="40" height="30" as="geometry">
            <mxRectangle width="40" height="30" as="alternateBounds" />
          </mxGeometry>
        </mxCell>
        <mxCell id="HrjmXTN8IJn1UTuncU6w-53" value="" style="shape=partialRectangle;html=1;whiteSpace=wrap;connectable=0;fillColor=none;top=0;left=0;bottom=0;right=0;align=left;spacingLeft=6;overflow=hidden;strokeColor=inherit;fontSize=16;" vertex="1" parent="HrjmXTN8IJn1UTuncU6w-51">
          <mxGeometry x="40" width="780" height="30" as="geometry">
            <mxRectangle width="780" height="30" as="alternateBounds" />
          </mxGeometry>
        </mxCell>
        <mxCell id="HrjmXTN8IJn1UTuncU6w-54" value="" style="shape=tableRow;horizontal=0;startSize=0;swimlaneHead=0;swimlaneBody=0;top=0;left=0;bottom=0;right=0;collapsible=0;dropTarget=0;fillColor=none;points=[[0,0.5],[1,0.5]];portConstraint=eastwest;strokeColor=inherit;fontSize=16;" vertex="1" parent="HrjmXTN8IJn1UTuncU6w-47">
          <mxGeometry y="90" width="820" height="910" as="geometry" />
        </mxCell>
        <mxCell id="HrjmXTN8IJn1UTuncU6w-55" value="" style="shape=partialRectangle;html=1;whiteSpace=wrap;connectable=0;fillColor=none;top=0;left=0;bottom=0;right=0;overflow=hidden;strokeColor=inherit;fontSize=16;" vertex="1" parent="HrjmXTN8IJn1UTuncU6w-54">
          <mxGeometry width="40" height="910" as="geometry">
            <mxRectangle width="40" height="910" as="alternateBounds" />
          </mxGeometry>
        </mxCell>
        <mxCell id="HrjmXTN8IJn1UTuncU6w-56" value="" style="shape=partialRectangle;html=1;whiteSpace=wrap;connectable=0;fillColor=none;top=0;left=0;bottom=0;right=0;align=left;spacingLeft=6;overflow=hidden;strokeColor=inherit;fontSize=16;" vertex="1" parent="HrjmXTN8IJn1UTuncU6w-54">
          <mxGeometry x="40" width="780" height="910" as="geometry">
            <mxRectangle width="780" height="910" as="alternateBounds" />
          </mxGeometry>
        </mxCell>
        <mxCell id="HrjmXTN8IJn1UTuncU6w-74" value="" style="whiteSpace=wrap;html=1;rounded=1;" vertex="1" parent="HrjmXTN8IJn1UTuncU6w-54">
          <mxGeometry x="820" width="NaN" height="910" as="geometry">
            <mxRectangle width="NaN" height="910" as="alternateBounds" />
          </mxGeometry>
        </mxCell>
        <mxCell id="HrjmXTN8IJn1UTuncU6w-76" value="" style="whiteSpace=wrap;html=1;rounded=1;" vertex="1" parent="HrjmXTN8IJn1UTuncU6w-54">
          <mxGeometry width="NaN" height="910" as="geometry">
            <mxRectangle width="NaN" height="910" as="alternateBounds" />
          </mxGeometry>
        </mxCell>
        <mxCell id="HrjmXTN8IJn1UTuncU6w-57" value="pelanggan" style="rounded=0;whiteSpace=wrap;html=1;" vertex="1" parent="1">
          <mxGeometry x="521" y="300" width="130" height="40" as="geometry" />
        </mxCell>
        <mxCell id="HrjmXTN8IJn1UTuncU6w-58" value="waiter" style="rounded=0;whiteSpace=wrap;html=1;" vertex="1" parent="1">
          <mxGeometry x="651" y="300" width="130" height="40" as="geometry" />
        </mxCell>
        <mxCell id="HrjmXTN8IJn1UTuncU6w-59" value="koki" style="rounded=0;whiteSpace=wrap;html=1;" vertex="1" parent="1">
          <mxGeometry x="781" y="300" width="130" height="40" as="geometry" />
        </mxCell>
        <mxCell id="HrjmXTN8IJn1UTuncU6w-60" value="kasir" style="rounded=0;whiteSpace=wrap;html=1;" vertex="1" parent="1">
          <mxGeometry x="911" y="300" width="130" height="40" as="geometry" />
        </mxCell>
        <mxCell id="HrjmXTN8IJn1UTuncU6w-61" value="manager" style="rounded=0;whiteSpace=wrap;html=1;" vertex="1" parent="1">
          <mxGeometry x="1040" y="300" width="130" height="40" as="geometry" />
        </mxCell>
        <mxCell id="HrjmXTN8IJn1UTuncU6w-62" value="owner" style="rounded=0;whiteSpace=wrap;html=1;" vertex="1" parent="1">
          <mxGeometry x="1170" y="300" width="130" height="40" as="geometry" />
        </mxCell>
        <mxCell id="HrjmXTN8IJn1UTuncU6w-63" value="" style="rounded=0;whiteSpace=wrap;html=1;" vertex="1" parent="1">
          <mxGeometry x="521" y="340" width="130" height="930" as="geometry" />
        </mxCell>
        <mxCell id="HrjmXTN8IJn1UTuncU6w-64" value="" style="rounded=0;whiteSpace=wrap;html=1;" vertex="1" parent="1">
          <mxGeometry x="651" y="340" width="130" height="930" as="geometry" />
        </mxCell>
        <mxCell id="HrjmXTN8IJn1UTuncU6w-65" value="" style="rounded=0;whiteSpace=wrap;html=1;" vertex="1" parent="1">
          <mxGeometry x="781" y="340" width="130" height="930" as="geometry" />
        </mxCell>
        <mxCell id="HrjmXTN8IJn1UTuncU6w-66" value="" style="rounded=0;whiteSpace=wrap;html=1;" vertex="1" parent="1">
          <mxGeometry x="911" y="340" width="130" height="930" as="geometry" />
        </mxCell>
        <mxCell id="HrjmXTN8IJn1UTuncU6w-67" value="" style="rounded=0;whiteSpace=wrap;html=1;" vertex="1" parent="1">
          <mxGeometry x="1040" y="340" width="130" height="930" as="geometry" />
        </mxCell>
        <mxCell id="HrjmXTN8IJn1UTuncU6w-71" value="" style="edgeStyle=orthogonalEdgeStyle;rounded=0;orthogonalLoop=1;jettySize=auto;html=1;" edge="1" parent="1" source="HrjmXTN8IJn1UTuncU6w-68" target="HrjmXTN8IJn1UTuncU6w-69">
          <mxGeometry relative="1" as="geometry" />
        </mxCell>
        <mxCell id="HrjmXTN8IJn1UTuncU6w-68" value="" style="ellipse;whiteSpace=wrap;html=1;aspect=fixed;fillColor=#1A1A1A;strokeColor=#1A1A1A;" vertex="1" parent="1">
          <mxGeometry x="563.5" y="370" width="45" height="45" as="geometry" />
        </mxCell>
        <mxCell id="HrjmXTN8IJn1UTuncU6w-75" value="" style="edgeStyle=orthogonalEdgeStyle;rounded=0;orthogonalLoop=1;jettySize=auto;html=1;" edge="1" parent="1" source="HrjmXTN8IJn1UTuncU6w-69" target="HrjmXTN8IJn1UTuncU6w-74">
          <mxGeometry relative="1" as="geometry" />
        </mxCell>
        <mxCell id="HrjmXTN8IJn1UTuncU6w-77" value="" style="edgeStyle=orthogonalEdgeStyle;rounded=0;orthogonalLoop=1;jettySize=auto;html=1;" edge="1" parent="1" source="HrjmXTN8IJn1UTuncU6w-69" target="HrjmXTN8IJn1UTuncU6w-76">
          <mxGeometry relative="1" as="geometry" />
        </mxCell>
        <mxCell id="HrjmXTN8IJn1UTuncU6w-79" style="edgeStyle=orthogonalEdgeStyle;rounded=0;orthogonalLoop=1;jettySize=auto;html=1;entryX=0.5;entryY=0;entryDx=0;entryDy=0;" edge="1" parent="1" source="HrjmXTN8IJn1UTuncU6w-69" target="HrjmXTN8IJn1UTuncU6w-78">
          <mxGeometry relative="1" as="geometry" />
        </mxCell>
        <mxCell id="HrjmXTN8IJn1UTuncU6w-69" value="melihat daftar pesanan" style="rounded=1;whiteSpace=wrap;html=1;" vertex="1" parent="1">
          <mxGeometry x="539" y="470" width="94" height="40" as="geometry" />
        </mxCell>
        <mxCell id="HrjmXTN8IJn1UTuncU6w-82" value="" style="edgeStyle=orthogonalEdgeStyle;rounded=0;orthogonalLoop=1;jettySize=auto;html=1;" edge="1" parent="1" source="HrjmXTN8IJn1UTuncU6w-78" target="HrjmXTN8IJn1UTuncU6w-80">
          <mxGeometry relative="1" as="geometry" />
        </mxCell>
        <mxCell id="HrjmXTN8IJn1UTuncU6w-78" value="menyampaikan pesanan ke waiter" style="rounded=1;whiteSpace=wrap;html=1;" vertex="1" parent="1">
          <mxGeometry x="530.5" y="550" width="111" height="50" as="geometry" />
        </mxCell>
        <mxCell id="HrjmXTN8IJn1UTuncU6w-84" style="edgeStyle=orthogonalEdgeStyle;rounded=0;orthogonalLoop=1;jettySize=auto;html=1;" edge="1" parent="1" source="HrjmXTN8IJn1UTuncU6w-80" target="HrjmXTN8IJn1UTuncU6w-83">
          <mxGeometry relative="1" as="geometry" />
        </mxCell>
        <mxCell id="HrjmXTN8IJn1UTuncU6w-80" value="melakukan pemesanan sesuai permintaan pelanggan" style="rounded=1;whiteSpace=wrap;html=1;" vertex="1" parent="1">
          <mxGeometry x="658" y="545" width="116" height="60" as="geometry" />
        </mxCell>
        <mxCell id="HrjmXTN8IJn1UTuncU6w-86" style="edgeStyle=orthogonalEdgeStyle;rounded=0;orthogonalLoop=1;jettySize=auto;html=1;entryX=0.5;entryY=0;entryDx=0;entryDy=0;" edge="1" parent="1" source="HrjmXTN8IJn1UTuncU6w-83" target="HrjmXTN8IJn1UTuncU6w-85">
          <mxGeometry relative="1" as="geometry" />
        </mxCell>
        <mxCell id="HrjmXTN8IJn1UTuncU6w-83" value="melihat data pesanan" style="rounded=1;whiteSpace=wrap;html=1;" vertex="1" parent="1">
          <mxGeometry x="786" y="557.5" width="120" height="35" as="geometry" />
        </mxCell>
        <mxCell id="HrjmXTN8IJn1UTuncU6w-88" style="edgeStyle=orthogonalEdgeStyle;rounded=0;orthogonalLoop=1;jettySize=auto;html=1;entryX=0.5;entryY=0;entryDx=0;entryDy=0;" edge="1" parent="1" source="HrjmXTN8IJn1UTuncU6w-85" target="HrjmXTN8IJn1UTuncU6w-87">
          <mxGeometry relative="1" as="geometry" />
        </mxCell>
        <mxCell id="HrjmXTN8IJn1UTuncU6w-85" value="merubah status pesanan dalam proses" style="rounded=1;whiteSpace=wrap;html=1;" vertex="1" parent="1">
          <mxGeometry x="786" y="630" width="120" height="60" as="geometry" />
        </mxCell>
        <mxCell id="HrjmXTN8IJn1UTuncU6w-91" style="edgeStyle=orthogonalEdgeStyle;rounded=0;orthogonalLoop=1;jettySize=auto;html=1;" edge="1" parent="1" source="HrjmXTN8IJn1UTuncU6w-87" target="HrjmXTN8IJn1UTuncU6w-90">
          <mxGeometry relative="1" as="geometry" />
        </mxCell>
        <mxCell id="HrjmXTN8IJn1UTuncU6w-87" value="menggunakan stock bahan utama" style="rounded=1;whiteSpace=wrap;html=1;" vertex="1" parent="1">
          <mxGeometry x="786" y="730" width="120" height="40" as="geometry" />
        </mxCell>
        <mxCell id="HrjmXTN8IJn1UTuncU6w-106" style="edgeStyle=orthogonalEdgeStyle;rounded=0;orthogonalLoop=1;jettySize=auto;html=1;entryX=1;entryY=0.5;entryDx=0;entryDy=0;" edge="1" parent="1" source="HrjmXTN8IJn1UTuncU6w-89" target="HrjmXTN8IJn1UTuncU6w-105">
          <mxGeometry relative="1" as="geometry" />
        </mxCell>
        <mxCell id="HrjmXTN8IJn1UTuncU6w-89" value="merubah status pesanan selesai" style="rounded=1;whiteSpace=wrap;html=1;" vertex="1" parent="1">
          <mxGeometry x="786" y="900" width="120" height="50" as="geometry" />
        </mxCell>
        <mxCell id="HrjmXTN8IJn1UTuncU6w-92" style="edgeStyle=orthogonalEdgeStyle;rounded=0;orthogonalLoop=1;jettySize=auto;html=1;entryX=0.5;entryY=0;entryDx=0;entryDy=0;" edge="1" parent="1" source="HrjmXTN8IJn1UTuncU6w-90" target="HrjmXTN8IJn1UTuncU6w-89">
          <mxGeometry relative="1" as="geometry" />
        </mxCell>
        <mxCell id="HrjmXTN8IJn1UTuncU6w-90" value="mengolah pesanan" style="rounded=1;whiteSpace=wrap;html=1;" vertex="1" parent="1">
          <mxGeometry x="786" y="810" width="120" height="50" as="geometry" />
        </mxCell>
        <mxCell id="HrjmXTN8IJn1UTuncU6w-105" value="mengambil pesanan dari meja dapur" style="rounded=1;whiteSpace=wrap;html=1;" vertex="1" parent="1">
          <mxGeometry x="654" y="902.5" width="120" height="45" as="geometry" />
        </mxCell>
        <mxCell id="HrjmXTN8IJn1UTuncU6w-112" style="edgeStyle=orthogonalEdgeStyle;rounded=0;orthogonalLoop=1;jettySize=auto;html=1;" edge="1" parent="1" source="HrjmXTN8IJn1UTuncU6w-107" target="HrjmXTN8IJn1UTuncU6w-109">
          <mxGeometry relative="1" as="geometry" />
        </mxCell>
        <mxCell id="HrjmXTN8IJn1UTuncU6w-114" style="edgeStyle=orthogonalEdgeStyle;rounded=0;orthogonalLoop=1;jettySize=auto;html=1;" edge="1" parent="1" source="HrjmXTN8IJn1UTuncU6w-107" target="HrjmXTN8IJn1UTuncU6w-113">
          <mxGeometry relative="1" as="geometry" />
        </mxCell>
        <mxCell id="HrjmXTN8IJn1UTuncU6w-107" value="mengirimkan pesanan ke meja pelanggan" style="rounded=1;whiteSpace=wrap;html=1;" vertex="1" parent="1">
          <mxGeometry x="656" y="990" width="120" height="60" as="geometry" />
        </mxCell>
        <mxCell id="HrjmXTN8IJn1UTuncU6w-108" style="edgeStyle=orthogonalEdgeStyle;rounded=0;orthogonalLoop=1;jettySize=auto;html=1;entryX=0.483;entryY=0;entryDx=0;entryDy=0;entryPerimeter=0;" edge="1" parent="1" source="HrjmXTN8IJn1UTuncU6w-105" target="HrjmXTN8IJn1UTuncU6w-107">
          <mxGeometry relative="1" as="geometry" />
        </mxCell>
        <mxCell id="HrjmXTN8IJn1UTuncU6w-117" style="edgeStyle=orthogonalEdgeStyle;rounded=0;orthogonalLoop=1;jettySize=auto;html=1;entryX=0.5;entryY=0;entryDx=0;entryDy=0;" edge="1" parent="1" source="HrjmXTN8IJn1UTuncU6w-109" target="HrjmXTN8IJn1UTuncU6w-115">
          <mxGeometry relative="1" as="geometry" />
        </mxCell>
        <mxCell id="HrjmXTN8IJn1UTuncU6w-109" value="membayar pesanan" style="rounded=1;whiteSpace=wrap;html=1;" vertex="1" parent="1">
          <mxGeometry x="526" y="1070" width="120" height="40" as="geometry" />
        </mxCell>
        <mxCell id="HrjmXTN8IJn1UTuncU6w-116" style="edgeStyle=orthogonalEdgeStyle;rounded=0;orthogonalLoop=1;jettySize=auto;html=1;entryX=0;entryY=0.5;entryDx=0;entryDy=0;" edge="1" parent="1" source="HrjmXTN8IJn1UTuncU6w-113" target="HrjmXTN8IJn1UTuncU6w-115">
          <mxGeometry relative="1" as="geometry" />
        </mxCell>
        <mxCell id="HrjmXTN8IJn1UTuncU6w-113" value="merubah status pesanan terkirim" style="rounded=1;whiteSpace=wrap;html=1;" vertex="1" parent="1">
          <mxGeometry x="656" y="1130" width="120" height="40" as="geometry" />
        </mxCell>
        <mxCell id="HrjmXTN8IJn1UTuncU6w-119" style="edgeStyle=orthogonalEdgeStyle;rounded=0;orthogonalLoop=1;jettySize=auto;html=1;entryX=0.5;entryY=0;entryDx=0;entryDy=0;" edge="1" parent="1" source="HrjmXTN8IJn1UTuncU6w-115" target="HrjmXTN8IJn1UTuncU6w-118">
          <mxGeometry relative="1" as="geometry" />
        </mxCell>
        <mxCell id="HrjmXTN8IJn1UTuncU6w-115" value="melihat pesanan yang selesai dan sudah terkirim" style="rounded=1;whiteSpace=wrap;html=1;" vertex="1" parent="1">
          <mxGeometry x="916" y="1020" width="120" height="60" as="geometry" />
        </mxCell>
        <mxCell id="HrjmXTN8IJn1UTuncU6w-121" style="edgeStyle=orthogonalEdgeStyle;rounded=0;orthogonalLoop=1;jettySize=auto;html=1;exitX=0.5;exitY=1;exitDx=0;exitDy=0;" edge="1" parent="1" source="HrjmXTN8IJn1UTuncU6w-118" target="HrjmXTN8IJn1UTuncU6w-120">
          <mxGeometry relative="1" as="geometry" />
        </mxCell>
        <mxCell id="HrjmXTN8IJn1UTuncU6w-118" value="mencetak nota" style="rounded=1;whiteSpace=wrap;html=1;" vertex="1" parent="1">
          <mxGeometry x="916" y="1110" width="120" height="30" as="geometry" />
        </mxCell>
        <mxCell id="HrjmXTN8IJn1UTuncU6w-123" style="edgeStyle=orthogonalEdgeStyle;rounded=0;orthogonalLoop=1;jettySize=auto;html=1;" edge="1" parent="1" source="HrjmXTN8IJn1UTuncU6w-120" target="HrjmXTN8IJn1UTuncU6w-122">
          <mxGeometry relative="1" as="geometry" />
        </mxCell>
        <mxCell id="HrjmXTN8IJn1UTuncU6w-120" value="mengubah status pesanan menjadi telah dibayar" style="rounded=1;whiteSpace=wrap;html=1;" vertex="1" parent="1">
          <mxGeometry x="916" y="1160" width="120" height="60" as="geometry" />
        </mxCell>
        <mxCell id="HrjmXTN8IJn1UTuncU6w-127" style="edgeStyle=orthogonalEdgeStyle;rounded=0;orthogonalLoop=1;jettySize=auto;html=1;" edge="1" parent="1" source="HrjmXTN8IJn1UTuncU6w-122" target="HrjmXTN8IJn1UTuncU6w-124">
          <mxGeometry relative="1" as="geometry" />
        </mxCell>
        <mxCell id="HrjmXTN8IJn1UTuncU6w-122" value="melihat laporan penjualan" style="rounded=1;whiteSpace=wrap;html=1;" vertex="1" parent="1">
          <mxGeometry x="1045" y="1170" width="120" height="40" as="geometry" />
        </mxCell>
        <mxCell id="HrjmXTN8IJn1UTuncU6w-129" style="edgeStyle=orthogonalEdgeStyle;rounded=0;orthogonalLoop=1;jettySize=auto;html=1;" edge="1" parent="1" source="HrjmXTN8IJn1UTuncU6w-124" target="HrjmXTN8IJn1UTuncU6w-126">
          <mxGeometry relative="1" as="geometry" />
        </mxCell>
        <mxCell id="HrjmXTN8IJn1UTuncU6w-124" value="melihat laporan penjualan" style="rounded=1;whiteSpace=wrap;html=1;" vertex="1" parent="1">
          <mxGeometry x="1175" y="1175" width="120" height="30" as="geometry" />
        </mxCell>
        <mxCell id="HrjmXTN8IJn1UTuncU6w-126" value="" style="ellipse;whiteSpace=wrap;html=1;aspect=fixed;fillColor=#1A1A1A;strokeColor=#1A1A1A;" vertex="1" parent="1">
          <mxGeometry x="1217.5" y="1220" width="35" height="35" as="geometry" />
        </mxCell>
      </root>
    </mxGraphModel>
  </diagram>
</mxfile>
